<svg id="Capa_1" enable-background="new 0 0 512.006 512.006" height="512" viewBox="0 0 512.006 512.006" width="512" xmlns="http://www.w3.org/2000/svg"><g><path d="m421.675 451.457c28.945 0 35.474 10.454 55.7 16.446 3.974 1.179 8.145-1.089 9.322-5.061 1.177-3.971-1.089-8.145-5.061-9.321-17.684-5.24-27.448-17.064-59.962-17.064-42.996 0-44.215 20-82.832 20-4.143 0-7.5 3.358-7.5 7.5s3.357 7.5 7.5 7.5c42.998 0 44.216-20 82.833-20z"/><path d="m173.18 459.457c-38.784 0-39.633-20-82.837-20-4.143 0-7.5 3.358-7.5 7.5s3.357 7.5 7.5 7.5c38.786 0 39.632 20 82.837 20 42.996 0 44.216-20 82.833-20 4.143 0 7.5-3.358 7.5-7.5s-3.357-7.5-7.5-7.5c-22.425 0-34.247 5.709-44.679 10.746-9.854 4.759-19.162 9.254-38.154 9.254z"/><path d="m14.324 244.588c4.969 1.333 10.179.656 14.658-1.93l88.751-51.24-2.507 181.395-11.027 6.815c-4.871 3.01-7.778 8.225-7.778 13.95v2.48c-1.937-.096-3.96-.147-6.078-.147-43 0-44.216 20-82.837 20-4.143 0-7.5 3.358-7.5 7.5v81.092c0 4.142 3.357 7.5 7.5 7.5h497c4.143 0 7.5-3.358 7.5-7.5v-81.092c0-4.142-3.357-7.5-7.5-7.5-38.783 0-39.629-20-82.831-20-1.795 0-3.522.037-5.187.107v-2.439c0-5.726-2.907-10.94-7.777-13.95l-11.033-6.819-1.664-120.427 30.801 37.609c6.043 7.377 16.397 9.226 24.603 4.488 9.224-5.326 12.396-17.163 7.07-26.387l-20.39-35.315c-2.072-3.588-6.659-4.817-10.245-2.745-3.587 2.071-4.816 6.658-2.745 10.245l20.39 35.315c1.189 2.062.48 4.707-1.58 5.897-1.842 1.062-4.152.64-5.498-1.003-5.736-7.004 16.223 19.808-49.205-60.08-.992-1.212-1.189-2.905-.501-4.313l.751-1.535c3.698-7.565 3.393-16.436-.817-23.731l-.534-.925c2.092-.956 4.076-2.109 5.928-3.435l13.325 23.08c1.389 2.406 3.91 3.751 6.502 3.751 5.706 0 9.392-6.222 6.488-11.251l-15.816-27.394c5.841-10.606 5.853-23.53 0-34.159l3.03-5.249c1.711-2.963 4.771-4.873 8.186-5.108l1.702-.117c7.396-.51 13.868-5.321 16.486-12.257l27.428-72.652c3.357-8.893-.181-18.797-8.414-23.551-9.227-5.326-21.062-2.153-26.386 7.071l-53.943 93.431c-12.523.269-23.471 7.05-29.585 17.086h-6.064c-3.422 0-6.604-1.695-8.515-4.533l-.954-1.418c-4.141-6.15-11.543-9.351-18.858-8.148l-76.632 12.573c-9.381 1.538-16.189 9.555-16.189 19.062 0 10.651 8.665 19.316 19.316 19.316h107.896c2.276 3.736 5.222 7.02 8.669 9.686l-2.586 187.127-11.027 6.815c-4.871 3.01-7.778 8.225-7.778 13.95v21.996c-30.512-2.549-34.284-19.663-74.311-19.663-2.743 0-5.418.084-7.95.251-4.133.272-7.264 3.843-6.991 7.976.271 4.134 3.872 7.273 7.976 6.992 2.206-.145 4.55-.219 6.966-.219 38.783 0 39.629 20 82.83 20 42.996 0 44.215-20 82.832-20 36.809 0 38.705 17.477 75.331 19.772v66.32h-482v-66.32c36.834-2.308 38.415-19.772 75.337-19.772 38.786 0 39.632 20 82.837 20 22.424 0 34.247-5.709 44.678-10.746l.435-.209c3.729-1.801 5.294-6.284 3.493-10.015-1.8-3.729-6.281-5.296-10.015-3.494-9.917 4.792-16.963 7.901-29.185 9.049v-21.917c0-5.725-2.907-10.939-7.777-13.95l-11.033-6.819-1.497-108.314c-.057-4.167-3.487-7.453-7.603-7.396-4.142.058-7.453 3.461-7.396 7.603l1.45 104.903h-18.459l2.448-177.16c4.461.866 9.094.867 13.563 0l.507 36.69c.057 4.107 3.403 7.396 7.497 7.396 4.192 0 7.559-3.429 7.501-7.604l-.519-37.508.559.322c2.964 1.711 4.873 4.771 5.108 8.183l.117 1.705c.51 7.396 5.321 13.868 12.258 16.486l72.652 27.428c8.886 3.356 18.795-.178 23.551-8.414 5.325-9.224 2.153-21.061-7.07-26.387l-93.432-53.942c-.269-12.523-7.05-23.471-17.086-29.585v-6.064c0-3.421 1.695-6.605 4.531-8.515l1.42-.955c6.15-4.14 9.349-11.543 8.148-18.858l-12.573-76.631c-1.538-9.381-9.555-16.19-19.062-16.19-10.651 0-19.316 8.666-19.316 19.316v107.896c-10.035 6.114-16.817 17.062-17.086 29.584l-5.243 3.027c-2.963 1.71-6.565 1.835-9.643.332l-1.533-.75c-6.663-3.259-14.673-2.325-20.406 2.372l-60.077 49.205c-12.259 10.039-7.817 29.568 7.239 33.602zm425.239-208.458c1.191-2.062 3.839-2.77 5.896-1.58 1.84 1.062 2.631 3.275 1.881 5.263l-27.428 72.652c-.554 1.466-1.921 2.483-3.485 2.591l-1.702.117c-8.402.579-15.933 5.279-20.144 12.573l-.539.934c-1.852-1.327-3.836-2.48-5.928-3.436zm-66.16 100.923c11.299 0 20.521 9.19 20.521 20.521 0 11.327-9.217 20.521-20.521 20.521-11.315 0-20.521-9.206-20.521-20.521s9.205-20.521 20.521-20.521zm-138.254 23.947c-2.38 0-4.316-1.937-4.316-4.316 0-2.124 1.521-3.916 3.617-4.259l76.633-12.573c1.547-.252 3.111.422 3.985 1.722l.953 1.417c4.702 6.987 12.538 11.158 20.96 11.158h1.066c-.213 2.218-.225 4.507 0 6.852h-102.898zm137.48 32.086 3.027 5.242c1.711 2.964 1.835 6.569.333 9.643l-.75 1.534c-3.258 6.661-2.326 14.671 2.371 20.406l3.146 3.841 1.877 135.854h-18.459l2.448-177.16c1.951.377 3.958.596 6.007.64zm-27.305 222.635v-22.143c0-.489.248-.934.664-1.19l12.593-7.783h29.651l12.594 7.783c.415.257.663.702.663 1.19v4.186c-23.893 4.804-29.798 16.349-56.165 17.957zm-177.737-22.143v22.193c-26.823-1.388-32.652-12.826-56.165-17.823v-4.37c0-.489.248-.934.664-1.19l12.593-7.783h29.651l12.593 7.782c.409.254.664.71.664 1.191zm94.937-163.948c-1.063 1.841-3.276 2.63-5.263 1.881l-72.653-27.428c-1.466-.554-2.482-1.921-2.59-3.483l-.117-1.704c-.579-8.402-5.279-15.933-12.573-20.144l-.934-.539c1.327-1.852 2.48-3.836 3.436-5.929l89.114 51.45c2.061 1.19 2.769 3.835 1.58 5.896zm-126.449-210.31c0-2.38 1.937-4.316 4.316-4.316 2.124 0 3.915 1.521 4.259 3.618l12.573 76.633c.254 1.546-.422 3.11-1.72 3.984l-1.42.955c-6.986 4.703-11.157 12.538-11.157 20.959v1.065c-2.214-.213-4.501-.226-6.852 0v-102.898zm3.426 117.733c12.224 0 21.806 10.686 20.382 22.913-1.576 11.221-10.65 18.129-20.382 18.129-10.465 0-19.124-7.873-20.367-18.007-1.51-12.302 8.129-23.035 20.367-23.035zm-122.913 85.538 60.08-49.205c1.211-.992 2.905-1.189 4.313-.501l1.533.75c7.566 3.699 16.437 3.393 23.731-.817l.925-.534c.956 2.093 2.109 4.077 3.436 5.929l-89.125 51.456c-.999.576-2.165.729-3.275.431-3.363-.901-4.358-5.266-1.618-7.509z"/><circle cx="139.5" cy="157.574" r="7.5"/><circle cx="373.403" cy="157.574" r="7.5"/></g></svg>