<?xml version="1.0" encoding="utf-8"?>
<!-- Generator: Adobe Illustrator 23.1.0, SVG Export Plug-In . SVG Version: 6.00 Build 0)  -->
<svg version="1.1" id="Layer_1" xmlns="http://www.w3.org/2000/svg" xmlns:xlink="http://www.w3.org/1999/xlink" x="0px" y="0px"
	 viewBox="0 0 833 798" style="enable-background:new 0 0 833 798;" xml:space="preserve">
<style type="text/css">
	.st0{fill:#FFFFFF;}
	.st1{fill-rule:evenodd;clip-rule:evenodd;fill:#303030;}
</style>
<circle class="st0" cx="420.9" cy="405.5" r="376"/>
<g>
	<path class="st1" d="M493.2,245.4H445c-8.3,0-15,6.7-15,15c0,8.3,6.7,15,15,15h12l-34.3,34.3h-42c-4,0-7.8,1.6-10.6,4.4L338,346.2
		c-5.9,5.9-5.9,15.4,0,21.2c5.9,5.9,15.4,5.9,21.2,0l27.7-27.7h42c4,0,7.8-1.6,10.6-4.4l38.7-38.7v12c0,8.3,6.7,15,15,15
		s15-6.7,15-15v-48.2C508.2,252.1,501.5,245.4,493.2,245.4z"/>
	<path class="st1" d="M620.7,358.6c0-191.3-168-209.6-196.4-209.6c-108.6,0-179,94.3-179,167.9v26.7c-8.9,11.5-34.4,44.2-46.5,59.8
		c-6.3,8.1-9.7,18.1-9.7,28.4c0,19.2,11.5,36.2,29.3,43.3l14,5.6l22.7,63.4c11.2,31.5,41.2,52.6,74.6,52.6H353l13.2,52.9
		c1.7,6.7,7.7,11.4,14.6,11.4h192.8c4.7,0,9.1-2.2,12-6c2.8-3.8,3.7-8.6,2.4-13.2l-30.6-107.2l49.7-111.9
		C616.1,402.4,620.7,380.8,620.7,358.6z M579.7,410.5l-52,116.9c-1.4,3.2-1.7,6.8-0.7,10.2l26.7,93.3H392.4l-13.2-52.9
		c-1.7-6.7-7.7-11.4-14.6-11.4h-35c-20.8,0-39.4-13.1-46.4-32.7l-24.9-69.8c-1.4-4.1-4.6-7.3-8.6-8.9l-20.3-8.1
		c-10.4-4.2-13.6-17-7.1-25.4c12.6-16.3,39.8-51.2,47.6-61.2c3.4-4.4,5.3-9.8,5.3-15.3v-28.5c0-40.3,42.7-137.9,149-137.9
		c23.6,0,166.4,14.3,166.4,179.6C590.7,376.6,587,394.1,579.7,410.5z"/>
</g>
</svg>
